<?xml version="1.0" encoding="UTF-8" standalone="no"?>
<svg width="212px" height="23px" viewBox="0 0 212 23" version="1.1" xmlns="http://www.w3.org/2000/svg" xmlns:xlink="http://www.w3.org/1999/xlink">
    <!-- Generator: Sketch 3.7.2 (28276) - http://www.bohemiancoding.com/sketch -->
    <title>edenspiekermann_</title>
    <desc>Created with Sketch.</desc>
    <defs></defs>
    <g id="Page-1" stroke="none" stroke-width="1" fill="none" fill-rule="evenodd" fill-opacity="0.982704937">
        <path d="M6.672,18.312 C8.664,18.312 10.032,17.784 11.28,16.872 L10.368,14.952 C9.288,15.576 8.544,15.912 7.176,15.912 C5.064,15.912 4.44,14.976 4.416,12.744 L11.376,12.744 L11.376,11.376 C11.376,6.96 9.552,5.4 6.312,5.4 C2.856,5.4 0.792,7.344 0.792,11.832 C0.792,16.464 2.784,18.312 6.672,18.312 L6.672,18.312 Z M6.336,7.44 C7.656,7.44 8.04,8.112 8.04,10.704 L4.44,10.704 C4.536,8.064 5.136,7.44 6.336,7.44 L6.336,7.44 Z M21.024,18 L25.248,18 L25.248,16.272 L23.808,16.032 L23.808,0.432 L18.984,0.432 L18.984,2.352 L20.424,2.664 L20.424,6.576 C19.728,6 18.984,5.4 17.64,5.4 C15,5.4 13.056,7.008 13.056,11.904 C13.056,16.656 14.784,18.312 17.472,18.312 C18.912,18.312 19.872,17.784 20.712,16.8 L21.024,18 Z M18.48,15.936 C17.16,15.936 16.68,14.904 16.68,11.976 C16.68,8.952 17.184,7.944 18.696,7.944 C19.56,7.944 19.92,8.28 20.424,8.664 L20.424,15.264 C19.968,15.624 19.272,15.936 18.48,15.936 L18.48,15.936 Z M32.664,18.312 C34.656,18.312 36.024,17.784 37.272,16.872 L36.36,14.952 C35.28,15.576 34.536,15.912 33.168,15.912 C31.056,15.912 30.432,14.976 30.408,12.744 L37.368,12.744 L37.368,11.376 C37.368,6.96 35.544,5.4 32.304,5.4 C28.848,5.4 26.784,7.344 26.784,11.832 C26.784,16.464 28.776,18.312 32.664,18.312 L32.664,18.312 Z M32.328,7.44 C33.648,7.44 34.032,8.112 34.032,10.704 L30.432,10.704 C30.528,8.064 31.128,7.44 32.328,7.44 L32.328,7.44 Z M47.28,18 L52.104,18 L52.104,16.272 L50.688,16.032 L50.688,8.736 C50.688,6.576 49.632,5.4 47.664,5.4 C46.104,5.4 44.976,6 43.752,7.08 L43.416,5.712 L39.072,5.712 L39.072,7.752 L40.512,8.088 L40.512,16.032 L39.072,16.272 L39.072,18 L45.264,18 L45.264,16.272 L43.896,16.032 L43.896,8.856 C44.52,8.472 45.288,8.16 46.008,8.16 C46.944,8.16 47.28,8.64 47.28,9.864 L47.28,18 Z M58.032,18.312 C60.96,18.312 62.952,17.016 62.952,14.472 C62.952,11.856 61.584,10.944 59.136,10.296 C57.288,9.84 56.76,9.456 56.76,8.616 C56.76,7.8 57.408,7.392 58.512,7.392 C59.064,7.392 59.448,7.44 59.832,7.584 L60.24,9.288 L62.424,9.288 L62.424,6.144 C61.464,5.664 60.264,5.4 58.56,5.4 C55.44,5.4 53.808,6.936 53.808,9.168 C53.808,11.568 55.176,12.504 57.48,13.104 C59.208,13.512 59.856,13.92 59.856,14.928 C59.856,15.84 59.28,16.32 57.936,16.32 C57.264,16.32 56.952,16.224 56.52,16.08 L56.112,14.28 L53.832,14.28 L53.832,17.472 C54.864,18 56.328,18.312 58.032,18.312 L58.032,18.312 Z M69.024,5.712 L64.68,5.712 L64.68,7.752 L66.12,8.088 L66.12,20.76 L64.68,21 L64.68,22.632 L70.944,22.632 L70.944,21 L69.504,20.76 L69.504,17.184 C70.2,17.832 71.184,18.216 72.384,18.216 C75.168,18.216 77.04,16.776 77.04,11.616 C77.04,6.816 75.12,5.4 72.816,5.4 C71.256,5.4 70.056,6.36 69.384,7.104 L69.024,5.712 Z M71.424,16.008 C70.656,16.008 69.936,15.648 69.504,15.312 L69.504,8.64 C70.032,8.256 70.728,7.968 71.544,7.968 C72.984,7.968 73.392,8.856 73.392,11.808 C73.392,14.808 72.984,16.008 71.424,16.008 L71.424,16.008 Z M83.664,16.032 L83.664,5.712 L78.84,5.712 L78.84,7.752 L80.28,8.088 L80.28,16.032 L78.84,16.272 L78.84,18 L85.104,18 L85.104,16.272 L83.664,16.032 Z M81.864,4.416 C82.968,4.416 83.832,3.528 83.832,2.448 C83.832,1.368 82.968,0.48 81.84,0.48 C80.736,0.48 79.848,1.368 79.848,2.472 C79.848,3.528 80.736,4.416 81.864,4.416 L81.864,4.416 Z M92.448,18.312 C94.44,18.312 95.808,17.784 97.056,16.872 L96.144,14.952 C95.064,15.576 94.32,15.912 92.952,15.912 C90.84,15.912 90.216,14.976 90.192,12.744 L97.152,12.744 L97.152,11.376 C97.152,6.96 95.328,5.4 92.088,5.4 C88.632,5.4 86.568,7.344 86.568,11.832 C86.568,16.464 88.56,18.312 92.448,18.312 L92.448,18.312 Z M92.112,7.44 C93.432,7.44 93.816,8.112 93.816,10.704 L90.216,10.704 C90.312,8.064 90.912,7.44 92.112,7.44 L92.112,7.44 Z M103.704,11.712 L107.64,18 L111.432,18 L111.432,16.248 L110.184,16.032 L106.848,10.896 L109.488,7.944 L110.952,7.752 L110.952,5.712 L105.792,5.712 L105.792,7.704 L106.992,7.872 L103.704,11.712 Z M103.656,0.432 L98.856,0.432 L98.856,2.352 L100.272,2.688 L100.272,16.032 L98.856,16.272 L98.856,18 L104.928,18 L104.928,16.272 L103.656,16.032 L103.656,0.432 Z M118.56,18.312 C120.552,18.312 121.92,17.784 123.168,16.872 L122.256,14.952 C121.176,15.576 120.432,15.912 119.064,15.912 C116.952,15.912 116.328,14.976 116.304,12.744 L123.264,12.744 L123.264,11.376 C123.264,6.96 121.44,5.4 118.2,5.4 C114.744,5.4 112.68,7.344 112.68,11.832 C112.68,16.464 114.672,18.312 118.56,18.312 L118.56,18.312 Z M118.224,7.44 C119.544,7.44 119.928,8.112 119.928,10.704 L116.328,10.704 C116.424,8.064 117.024,7.44 118.224,7.44 L118.224,7.44 Z M129.792,15.984 L129.792,9.432 C130.488,9 131.184,8.76 132.096,8.76 C132.6,8.76 132.936,8.856 133.272,9.024 L133.704,5.52 C133.584,5.472 133.344,5.448 133.176,5.448 C131.616,5.448 130.464,6.192 129.624,7.704 L129.192,5.712 L124.968,5.712 L124.968,7.752 L126.408,8.088 L126.408,16.032 L124.968,16.272 L124.968,18 L131.688,18 L131.688,16.272 L129.792,15.984 Z M143.448,5.4 C141.936,5.4 140.928,6.024 139.704,7.08 L139.368,5.712 L135.024,5.712 L135.024,7.752 L136.464,8.088 L136.464,16.032 L135.024,16.272 L135.024,18 L141.192,18 L141.192,16.272 L139.848,16.032 L139.848,8.832 C140.472,8.424 141.12,8.184 141.768,8.184 C142.728,8.184 143.016,8.688 143.016,9.912 L143.016,18 L147.768,18 L147.768,16.272 L146.424,16.032 L146.424,8.832 C147.048,8.424 147.672,8.184 148.368,8.184 C149.304,8.184 149.616,8.688 149.616,9.912 L149.616,18 L154.44,18 L154.44,16.368 L153,16.128 L153,8.736 C153,6.576 151.944,5.4 150.024,5.4 C148.536,5.4 147.48,6.024 146.256,7.128 C145.848,6 144.84,5.4 143.448,5.4 L143.448,5.4 Z M160.752,16.056 C159.768,16.056 159.312,15.576 159.312,14.376 C159.312,12.84 160.032,12.456 161.712,12.456 L162.48,12.456 L162.48,15.432 C162.072,15.792 161.568,16.056 160.752,16.056 L160.752,16.056 Z M167.136,16.08 C166.056,16.08 165.864,15.936 165.864,15.12 L165.864,9.432 C165.864,6.456 164.328,5.4 161.4,5.4 C159.336,5.4 157.632,5.928 156.24,6.84 L157.2,9 C158.352,8.448 159.432,8.112 160.704,8.112 C162.168,8.112 162.48,8.736 162.48,10.056 L162.48,10.656 L161.76,10.656 C157.632,10.656 155.928,11.808 155.928,14.568 C155.928,17.208 157.488,18.312 159.648,18.312 C161.28,18.312 162.024,17.712 162.768,16.992 C163.104,18 163.944,18.312 165.096,18.312 C166.032,18.312 166.824,18.024 167.28,17.76 L167.136,16.08 Z M177.096,18 L181.92,18 L181.92,16.272 L180.504,16.032 L180.504,8.736 C180.504,6.576 179.448,5.4 177.48,5.4 C175.92,5.4 174.792,6 173.568,7.08 L173.232,5.712 L168.888,5.712 L168.888,7.752 L170.328,8.088 L170.328,16.032 L168.888,16.272 L168.888,18 L175.08,18 L175.08,16.272 L173.712,16.032 L173.712,8.856 C174.336,8.472 175.104,8.16 175.824,8.16 C176.76,8.16 177.096,8.64 177.096,9.864 L177.096,18 Z M191.736,18 L196.56,18 L196.56,16.272 L195.144,16.032 L195.144,8.736 C195.144,6.576 194.088,5.4 192.12,5.4 C190.56,5.4 189.432,6 188.208,7.08 L187.872,5.712 L183.528,5.712 L183.528,7.752 L184.968,8.088 L184.968,16.032 L183.528,16.272 L183.528,18 L189.72,18 L189.72,16.272 L188.352,16.032 L188.352,8.856 C188.976,8.472 189.744,8.16 190.464,8.16 C191.4,8.16 191.736,8.64 191.736,9.864 L191.736,18 Z M197.328,21.744 L211.008,21.744 L211.008,19.296 L197.328,19.296 L197.328,21.744 Z" id="edenspiekermann_" fill="#FFFFFF"></path>
    </g>
</svg>